# xmcd CD database file
#
# Track frame offsets:
#	150
#	27280
#	46077
#	69187
#	85434
#	101606
#	114268
#	132983
#	158830
#	179907
#
# Disc length: 2620 seconds
#
# Revision: 0
# Processed by: cddbd v1.5PL3 Copyright (c) Steve Scherf et al.
# Submitted via: CDex 1.51
#
DISCID=7f0a3a0a
DTITLE=talajii - III
DYEAR=2004
DGENRE=Hard Rock
TTITLE0=Cell division
TTITLE1=Antilope
TTITLE2=Get over(Inst ver)
TTITLE3=Mondsichel
TTITLE4=Adove the horizon
TTITLE5=F9
TTITLE6=Foolish
TTITLE7=Rattlesnake
TTITLE8=Naked truth -inst ver-
TTITLE9=Doggie bag
EXTD=YEAR: 2004/01/14
EXTT0=
EXTT1=
EXTT2=
EXTT3=
EXTT4=
EXTT5=
EXTT6=
EXTT7=
EXTT8=
EXTT9=
PLAYORDER=
